{"title":"Why Dont You Play in Hell 2013 BRRip XviD MP3 Idiocracy","uid":12649809,"size":885319336,"categoryP":"video","categoryS":"movies","magnet":"?xt=urn:btih:d130f9f71c2f7b768fb66266511acd12594a260b&amp;dn=Why+Dont+You+Play+in+Hell+2013+BRRip+XviD+MP3+Idiocracy&amp;tr=udp%3A%2F%2Ftracker.leechers-paradise.org%3A6969&amp;tr=udp%3A%2F%2Fzer0day.ch%3A1337&amp;tr=udp%3A%2F%2Fopen.demonii.com%3A1337&amp;tr=udp%3A%2F%2Ftracker.coppersurfer.tk%3A6969&amp;tr=udp%3A%2F%2Fexodus.desync.com%3A6969","seeders":0,"leechers":0,"uploader":"Satafakap","files":3,"time":1446115646,"description":"Synopsis / Plot\r\n\r\nA renegade film crew becomes embroiled with a yakuza clan feud.\r\n\r\nDirector: Shion Sono\r\nWriter: Shion Sono\r\nStars: Jun Kunimura, Fumi Nikaidô, Shin'ichi Tsutsumi\r\n \nhttp://www.imdb.com/title/tt2409302/\r\n\r\nGeneral\r\n\r\nComplete name       : Why.Dont.You.Play.in.Hell.2013.BRRip.XviD.MP3-Idiocracy.avi\r\nFormat              : AVI\r\nFormat/Info         : Audio Video Interleave\r\nFile size           : 837 MiB\r\nDuration            : 2h 9mn\r\nOverall bit rate    : 901 Kbps\r\nWriting application : VirtualDubMod 1.5.10.3 | www.virtualdub-fr.org\r\nWriting library     : VirtualDubMod build 2550/release\r\nSource              : Why Don't You Play in Hell.2013.720p.BluRay.x265 - Thanks!\r\nSample              : Yes\r\n\r\nVideo\r\n\r\nID                                       : 0\r\nFormat                                   : MPEG-4 Visual\r\nFormat profile                           : Advanced   \r\nFormat settings, BVOP                    : 2\r\nFormat settings, QPel                    : No\r\nFormat settings, GMC                     : No warppoints\r\nFormat settings, Matrix                  : Default (H.263)\r\nMuxing mode                              : Packed bitstream\r\nCodec ID                                 : XVID\r\nCodec ID/Hint                            : XviD\r\nDuration                                 : 2h 9mn\r\nBit rate                                 : 764 Kbps\r\nWidth                                    : 640 pixels\r\nHeight                                   : 264 pixels\r\nDisplay aspect ratio                     : 2.40:1\r\nFrame rate                               : 23.976 fps\r\nColor space                              : YUV\r\nChroma subsampling                       : 4:2:0\r\nBit depth                                : 8 bits\r\nScan type                                : Progressive\r\nCompression mode                         : Lossy\r\nBits/(Pixel*Frame)                       : 0.189\r\nStream size                              : 709 MiB (85%)\r\nWriting library                          : XviD 64\r\n\r\nAudio\r\n\r\nID                                       : 1\r\nFormat                                   : MPEG Audio\r\nFormat version                           : Version 1\r\nFormat profile                           : Layer 3\r\nMode                                     : Joint stereo\r\nMode extension                           : MS Stereo\r\nCodec ID                                 : 55\r\nCodec ID/Hint                            : MP3\r\nDuration                                 : 2h 9mn\r\nBit rate mode                            : Constant\r\nBit rate                                 : 128 Kbps\r\nChannel(s)                               : 2 channels\r\nSampling rate                            : 48.0 KHz\r\nCompression mode                         : Lossy\r\nStream size                              : 119 MiB (14%)\r\nAlignment                                : Split accross interleaves\r\nInterleave, duration                     : 42 ms (1.00 video frame)\r\nInterleave, preload duration             : 500 ms\r\n\r\n\r\n\r\nScreenshots:\r\n \nhttp://i.imgur.com/OW0Hp2y.jpg\r\n \nhttp://i.imgur.com/0WHJayQ.jpg\r\n \nhttp://i.imgur.com/P0Fgp2p.jpg\r\n \nhttp://i.imgur.com/eOFHmgh.jpg\r\n \nhttp://i.imgur.com/d6zyVt5.jpg","torrent":{"xt":"urn:btih:d130f9f71c2f7b768fb66266511acd12594a260b","amp;dn":"Why+Dont+You+Play+in+Hell+2013+BRRip+XviD+MP3+Idiocracy","amp;tr":["udp%3A%2F%2Ftracker.leechers-paradise.org%3A6969","udp%3A%2F%2Fzer0day.ch%3A1337","udp%3A%2F%2Fopen.demonii.com%3A1337","udp%3A%2F%2Ftracker.coppersurfer.tk%3A6969","udp%3A%2F%2Fexodus.desync.com%3A6969"],"infoHash":"d130f9f71c2f7b768fb66266511acd12594a260b","infoHashBuffer":{"type":"Buffer","data":[209,48,249,247,28,47,123,118,143,182,98,102,81,26,205,18,89,74,38,11]},"announce":[],"urlList":[]}}